<svg width="156" height="156" viewBox="0 0 156 156" fill="none" xmlns="http://www.w3.org/2000/svg">
<path d="M65 45.5L61.647 54.5613C57.2503 66.443 55.0519 72.384 50.7181 76.7182C46.3842 81.0518 40.4433 83.25 28.5613 87.6473L19.5 91L28.5613 94.3527C40.4433 98.75 46.3842 100.948 50.7181 105.282C55.0519 109.616 57.2503 115.557 61.647 127.438L65 136.5L68.3527 127.438C72.75 115.557 74.9482 109.616 79.2818 105.282C83.616 100.948 89.557 98.75 101.438 94.3527L110.5 91L101.438 87.6473C89.557 83.25 83.616 81.0518 79.2818 76.7182C74.9482 72.384 72.75 66.443 68.3527 54.5613L65 45.5Z" stroke="white" stroke-width="7" stroke-linejoin="round"/>
<path d="M117 19.5L115.563 23.3834C113.679 28.4757 112.737 31.0218 110.879 32.8791C109.022 34.7365 106.476 35.6787 101.384 37.563L97.5 39L101.384 40.437C106.476 42.3213 109.022 43.2635 110.879 45.1209C112.737 46.9782 113.679 49.5243 115.563 54.6166L117 58.5L118.437 54.6166C120.321 49.5243 121.263 46.9782 123.121 45.1208C124.978 43.2635 127.524 42.3213 132.616 40.437L136.5 39L132.616 37.563C127.524 35.6787 124.978 34.7365 123.121 32.8791C121.263 31.0218 120.321 28.4757 118.437 23.3834L117 19.5Z" stroke="white" stroke-width="7" stroke-linejoin="round"/>
</svg>
