<svg width="48" height="73" viewBox="0 0 48 73" fill="none" xmlns="http://www.w3.org/2000/svg">
<g filter="url(#filter0_d_86_37307)">
<path fill-rule="evenodd" clip-rule="evenodd" d="M17.8256 17.9343C17.7192 15.9756 16.9982 14.9558 15.4615 13.2521C14.5514 12.2439 12.8138 11.2356 12.8729 8.89453C12.8729 8.79022 12.8374 8.69751 12.7547 8.62797C12.672 8.55844 12.5656 8.51208 12.4474 8.50049C12.3883 8.50049 12.341 8.50049 12.2937 8.52367C12.2464 8.53526 9.27955 9.67102 9.39775 14.5502C9.40957 14.666 9.39775 14.7819 9.36229 14.8862C9.32683 14.9906 9.25591 15.0949 9.17317 15.1876C9.10225 15.2455 9.00769 15.2919 8.90131 15.3151C8.79492 15.3382 8.68854 15.3266 8.59398 15.3035C8.4876 15.2687 8.39304 15.2107 8.32211 15.1528C8.25119 15.0949 8.19209 15.0021 8.15663 14.9094C8.05025 14.6429 7.96751 14.3647 7.92023 14.0866C7.86113 13.7853 7.82567 13.4608 7.80203 13.1594C7.80203 13.1131 7.7902 13.0667 7.76656 13.0204C7.74292 12.974 7.70746 12.9392 7.672 12.9045C7.62472 12.8697 7.57744 12.8465 7.53016 12.8233C7.47106 12.8117 7.42378 12.8002 7.36468 12.8002C7.29376 12.8002 7.23465 12.8233 7.17555 12.8581C7.11645 12.8929 7.06917 12.9276 7.03371 12.9856C6.4427 13.8084 5.95807 14.6776 5.568 15.5816C5.23704 16.2886 5.02427 17.2621 5.00063 18.3515C4.96517 20.7621 6.41906 23.3581 8.85402 24.4359C12.1046 25.8614 15.8871 24.4939 17.3055 21.3879C17.6955 20.5419 17.8374 19.6611 17.8137 18.7803C17.8374 18.5021 17.8374 18.224 17.8256 17.9343Z" fill="url(#paint0_radial_86_37307)"/>
<path d="M12.4961 8.00244C12.7144 8.02385 12.9159 8.11089 13.0762 8.24561C13.289 8.42454 13.3729 8.66642 13.373 8.89404V8.90674C13.3472 9.93189 13.7081 10.6574 14.1934 11.2593C14.4411 11.5665 14.7209 11.8409 15.0078 12.1108C15.2161 12.3068 15.4381 12.5096 15.6396 12.7134L15.833 12.9175L16.3779 13.5347C16.891 14.1329 17.3076 14.6817 17.6201 15.2593C17.992 15.9466 18.2093 16.6593 18.2959 17.5259L18.3252 17.9067V17.9136L18.333 18.3667C18.3315 18.508 18.3248 18.6496 18.3135 18.7925C18.3354 19.7279 18.1823 20.6767 17.7598 21.5942L17.7607 21.5952C16.2218 24.965 12.1383 26.4222 8.65332 24.894L8.65137 24.8931C6.01817 23.7274 4.46286 20.9382 4.50098 18.3442V18.3403C4.52578 17.199 4.74817 16.1537 5.11523 15.3696C5.51784 14.4392 6.01805 13.543 6.62793 12.6938H6.62891C6.7251 12.5521 6.84315 12.4736 6.92188 12.4272L7.00781 12.3813C7.10189 12.3371 7.22088 12.3004 7.36426 12.3003L7.52832 12.314C7.57399 12.3212 7.60903 12.3292 7.62598 12.3325C7.66886 12.3409 7.71075 12.3553 7.75 12.3745C7.79368 12.3959 7.87966 12.4367 7.96777 12.5015C7.98678 12.5154 8.00562 12.5308 8.02246 12.5474C8.04295 12.5674 8.10192 12.6225 8.1582 12.7036L8.21191 12.7935L8.24902 12.8774C8.27775 12.9528 8.29449 13.0343 8.29883 13.1206H8.30078C8.31799 13.3399 8.3408 13.5651 8.37402 13.7798L8.41113 13.9907L8.41309 14.0024C8.44347 14.1812 8.49128 14.3637 8.55371 14.5444L8.62109 14.7241L8.62402 14.731L8.64258 14.7681C8.66848 14.7887 8.69962 14.8063 8.72949 14.8188C8.77044 14.8274 8.78968 14.8278 8.79492 14.8267C8.80823 14.8238 8.81975 14.8184 8.83008 14.814C8.86586 14.7684 8.8842 14.7383 8.88867 14.7251C8.89908 14.6944 8.9055 14.6515 8.90039 14.6011C8.89908 14.5882 8.89777 14.5749 8.89746 14.562C8.83572 12.0114 9.58291 10.389 10.3965 9.39502C10.7997 8.90245 11.2114 8.57313 11.5312 8.36475C11.6911 8.26059 11.829 8.18631 11.9316 8.13623C11.9828 8.11126 12.0261 8.09259 12.0596 8.07861C12.0708 8.07393 12.1043 8.06192 12.1406 8.05029C12.2843 7.99786 12.4129 8.00048 12.4473 8.00049C12.4635 8.00049 12.4799 8.00086 12.4961 8.00244Z" stroke="white" stroke-linejoin="round"/>
</g>
<g filter="url(#filter1_d_86_37307)">
<path fill-rule="evenodd" clip-rule="evenodd" d="M26.9923 11.4343C26.8859 9.47565 26.1649 8.45578 24.6283 6.75214C23.7181 5.74386 21.9805 4.73559 22.0396 2.39453C22.0396 2.29022 22.0042 2.19751 21.9214 2.12797C21.8387 2.05844 21.7323 2.01208 21.6141 2.00049C21.555 2.00049 21.5077 2.00049 21.4605 2.02367C21.4132 2.03526 18.4463 3.17102 18.5645 8.05015C18.5763 8.16605 18.5645 8.28194 18.529 8.38625C18.4936 8.49055 18.4227 8.59486 18.3399 8.68757C18.269 8.74552 18.1744 8.79187 18.0681 8.81505C17.9617 8.83823 17.8553 8.82664 17.7607 8.80346C17.6543 8.7687 17.5598 8.71075 17.4889 8.6528C17.4179 8.59485 17.3588 8.50214 17.3234 8.40942C17.217 8.14287 17.1343 7.86472 17.087 7.58658C17.0279 7.28525 16.9924 6.96075 16.9688 6.65943C16.9688 6.61307 16.957 6.56671 16.9333 6.52035C16.9097 6.474 16.8742 6.43923 16.8388 6.40446C16.7915 6.36969 16.7442 6.34651 16.6969 6.32333C16.6378 6.31174 16.5905 6.30015 16.5314 6.30015C16.4605 6.30015 16.4014 6.32333 16.3423 6.3581C16.2832 6.39287 16.2359 6.42764 16.2005 6.48558C15.6094 7.30843 15.1248 8.17764 14.7348 9.08161C14.4038 9.78856 14.191 10.7621 14.1674 11.8515C14.1319 14.2621 15.5858 16.8581 18.0208 17.9359C21.2713 19.3614 25.0538 17.9939 26.4722 14.8879C26.8623 14.0419 27.0041 13.1611 26.9805 12.2803C27.0041 12.0021 27.0041 11.724 26.9923 11.4343Z" fill="url(#paint1_radial_86_37307)"/>
<path d="M21.6628 1.50244C21.8812 1.52385 22.0826 1.61089 22.2429 1.74561C22.4558 1.92454 22.5397 2.16642 22.5398 2.39404V2.40674C22.5139 3.43189 22.8749 4.15745 23.3601 4.75928C23.6078 5.06652 23.8877 5.34085 24.1746 5.61084C24.3828 5.80685 24.6048 6.00961 24.8064 6.21338L24.9998 6.41748L25.5447 7.03467C26.0577 7.63289 26.4743 8.18167 26.7869 8.75928C27.1587 9.44658 27.3761 10.1593 27.4626 11.0259L27.4919 11.4067V11.4136L27.4998 11.8667C27.4983 12.008 27.4916 12.1496 27.4802 12.2925C27.5021 13.2279 27.349 14.1767 26.9265 15.0942L26.9275 15.0952C25.3886 18.465 21.3051 19.9222 17.8201 18.394L17.8181 18.3931C15.1849 17.2274 13.6296 14.4382 13.6677 11.8442V11.8403C13.6925 10.699 13.9149 9.65369 14.282 8.86963C14.6846 7.9392 15.1848 7.04297 15.7947 6.19385H15.7957C15.8918 6.05205 16.0099 5.97357 16.0886 5.92725L16.1746 5.88135C16.2686 5.83712 16.3876 5.80037 16.531 5.80029L16.6951 5.81396C16.7407 5.8212 16.7758 5.82918 16.7927 5.83252C16.8356 5.84093 16.8775 5.85529 16.9167 5.87451C16.9604 5.89593 17.0464 5.93673 17.1345 6.00146C17.1535 6.01544 17.1724 6.03085 17.1892 6.04736C17.2097 6.06743 17.2687 6.12254 17.325 6.20361L17.3787 6.29346L17.4158 6.37744C17.4445 6.45279 17.4612 6.53427 17.4656 6.62061H17.4675C17.4847 6.83986 17.5075 7.06513 17.5408 7.27979L17.5779 7.49072L17.5798 7.50244C17.6102 7.68121 17.658 7.86371 17.7205 8.04443L17.7878 8.22412L17.7908 8.23096L17.8093 8.26807C17.8352 8.28866 17.8664 8.30626 17.8962 8.31885C17.9372 8.32736 17.9564 8.3278 17.9617 8.32666C17.975 8.32376 17.9865 8.31841 17.9968 8.31396C18.0326 8.2684 18.0509 8.23826 18.0554 8.2251C18.0658 8.19443 18.0723 8.15146 18.0671 8.10107C18.0658 8.08824 18.0645 8.07491 18.0642 8.06201C18.0025 5.51143 18.7497 3.88903 19.5632 2.89502C19.9664 2.40245 20.3782 2.07313 20.698 1.86475C20.8579 1.76059 20.9958 1.68631 21.0984 1.63623C21.1496 1.61126 21.1928 1.59259 21.2263 1.57861C21.2375 1.57393 21.2711 1.56192 21.3074 1.55029C21.4511 1.49786 21.5797 1.50048 21.614 1.50049C21.6303 1.50049 21.6467 1.50086 21.6628 1.50244Z" stroke="white" stroke-linejoin="round"/>
</g>
<g filter="url(#filter2_d_86_37307)">
<path fill-rule="evenodd" clip-rule="evenodd" d="M24.635 50.883C24.635 44.3535 28.3796 40.3438 31.1825 37.3638C31.5547 36.9694 31.9051 36.597 32.2336 36.2245C34.5547 34.0991 36 31.0534 36 27.701C36 21.2373 30.635 16.0005 24 16.0005C17.365 16.0005 12 21.2373 12 27.701C12 30.4399 12.9635 32.9597 14.5839 34.9536H14.4964C15.0438 35.6986 15.7664 36.4874 16.5985 37.3419C19.4015 40.3438 23.146 44.3316 23.146 50.8611C23.146 51.0364 23.1898 52.0005 23.8905 52.0005C24.5912 52.0005 24.6569 51.0583 24.6569 50.8611L24.635 50.883Z" fill="url(#paint2_linear_86_37307)"/>
<path d="M24 15.5005C30.8992 15.5005 36.4998 20.9492 36.5 27.7007C36.5 31.1912 34.9977 34.3615 32.5879 36.5767C32.259 36.9487 31.91 37.3198 31.5459 37.7056C28.7638 40.6633 25.1959 44.5048 25.1367 50.7261C25.1489 50.7694 25.1572 50.8144 25.1572 50.8608C25.1572 50.9899 25.1382 51.3464 25.001 51.6899C24.8609 52.0404 24.5349 52.5004 23.8906 52.5005C23.2362 52.5005 22.9183 52.0222 22.7871 51.6724C22.6574 51.3264 22.6455 50.9706 22.6455 50.8608C22.6454 44.5528 19.0466 40.6964 16.2402 37.6909L15.6328 37.0562C15.0449 36.4304 14.5204 35.8302 14.0938 35.2495C14.0429 35.1804 14.0118 35.101 14.001 35.019C12.4302 32.9806 11.5 30.4466 11.5 27.7007C11.5002 20.9492 17.1008 15.5005 24 15.5005Z" stroke="white" stroke-linejoin="round"/>
</g>
<g filter="url(#filter3_d_86_37307)">
<g filter="url(#filter4_f_86_37307)">
<ellipse cx="24.0002" cy="53.7146" rx="1.71429" ry="0.857143" fill="black" fill-opacity="0.12"/>
</g>
<g filter="url(#filter5_f_86_37307)">
<ellipse cx="24.0001" cy="53.7148" rx="4.28571" ry="1.71429" fill="black" fill-opacity="0.12"/>
</g>
<g filter="url(#filter6_f_86_37307)">
<ellipse cx="24" cy="53.7146" rx="2.14286" ry="0.857143" fill="black" fill-opacity="0.12"/>
</g>
</g>
<g filter="url(#filter7_d_86_37307)">
<circle cx="24" cy="27.0005" r="4" fill="#EEEFF3"/>
<circle cx="24" cy="27.0005" r="3.5" stroke="white"/>
</g>
<defs>
<filter id="filter0_d_86_37307" x="3" y="6.5" width="18.8333" height="22.4995" filterUnits="userSpaceOnUse" color-interpolation-filters="sRGB">
<feFlood flood-opacity="0" result="BackgroundImageFix"/>
<feColorMatrix in="SourceAlpha" type="matrix" values="0 0 0 0 0 0 0 0 0 0 0 0 0 0 0 0 0 0 127 0" result="hardAlpha"/>
<feMorphology radius="1" operator="dilate" in="SourceAlpha" result="effect1_dropShadow_86_37307"/>
<feOffset dx="1" dy="1"/>
<feGaussianBlur stdDeviation="0.5"/>
<feComposite in2="hardAlpha" operator="out"/>
<feColorMatrix type="matrix" values="0 0 0 0 0.25098 0 0 0 0 0.313726 0 0 0 0 0.380392 0 0 0 0.2 0"/>
<feBlend mode="multiply" in2="BackgroundImageFix" result="effect1_dropShadow_86_37307"/>
<feBlend mode="normal" in="SourceGraphic" in2="effect1_dropShadow_86_37307" result="shape"/>
</filter>
<filter id="filter1_d_86_37307" x="12.1667" y="0" width="18.8333" height="22.4995" filterUnits="userSpaceOnUse" color-interpolation-filters="sRGB">
<feFlood flood-opacity="0" result="BackgroundImageFix"/>
<feColorMatrix in="SourceAlpha" type="matrix" values="0 0 0 0 0 0 0 0 0 0 0 0 0 0 0 0 0 0 127 0" result="hardAlpha"/>
<feMorphology radius="1" operator="dilate" in="SourceAlpha" result="effect1_dropShadow_86_37307"/>
<feOffset dx="1" dy="1"/>
<feGaussianBlur stdDeviation="0.5"/>
<feComposite in2="hardAlpha" operator="out"/>
<feColorMatrix type="matrix" values="0 0 0 0 0.25098 0 0 0 0 0.313726 0 0 0 0 0.380392 0 0 0 0.2 0"/>
<feBlend mode="multiply" in2="BackgroundImageFix" result="effect1_dropShadow_86_37307"/>
<feBlend mode="normal" in="SourceGraphic" in2="effect1_dropShadow_86_37307" result="shape"/>
</filter>
<filter id="filter2_d_86_37307" x="0" y="10.0005" width="48" height="60" filterUnits="userSpaceOnUse" color-interpolation-filters="sRGB">
<feFlood flood-opacity="0" result="BackgroundImageFix"/>
<feColorMatrix in="SourceAlpha" type="matrix" values="0 0 0 0 0 0 0 0 0 0 0 0 0 0 0 0 0 0 127 0" result="hardAlpha"/>
<feMorphology radius="1" operator="erode" in="SourceAlpha" result="effect1_dropShadow_86_37307"/>
<feOffset dy="6"/>
<feGaussianBlur stdDeviation="6"/>
<feComposite in2="hardAlpha" operator="out"/>
<feColorMatrix type="matrix" values="0 0 0 0 0.25098 0 0 0 0 0.313726 0 0 0 0 0.380392 0 0 0 0.33 0"/>
<feBlend mode="multiply" in2="BackgroundImageFix" result="effect1_dropShadow_86_37307"/>
<feBlend mode="normal" in="SourceGraphic" in2="effect1_dropShadow_86_37307" result="shape"/>
</filter>
<filter id="filter3_d_86_37307" x="8.71436" y="47.0005" width="30.5715" height="25.4287" filterUnits="userSpaceOnUse" color-interpolation-filters="sRGB">
<feFlood flood-opacity="0" result="BackgroundImageFix"/>
<feColorMatrix in="SourceAlpha" type="matrix" values="0 0 0 0 0 0 0 0 0 0 0 0 0 0 0 0 0 0 127 0" result="hardAlpha"/>
<feMorphology radius="1" operator="erode" in="SourceAlpha" result="effect1_dropShadow_86_37307"/>
<feOffset dy="6"/>
<feGaussianBlur stdDeviation="6"/>
<feComposite in2="hardAlpha" operator="out"/>
<feColorMatrix type="matrix" values="0 0 0 0 0.25098 0 0 0 0 0.313726 0 0 0 0 0.380392 0 0 0 0.33 0"/>
<feBlend mode="multiply" in2="BackgroundImageFix" result="effect1_dropShadow_86_37307"/>
<feBlend mode="normal" in="SourceGraphic" in2="effect1_dropShadow_86_37307" result="shape"/>
</filter>
<filter id="filter4_f_86_37307" x="20.2859" y="50.8574" width="7.42847" height="5.71436" filterUnits="userSpaceOnUse" color-interpolation-filters="sRGB">
<feFlood flood-opacity="0" result="BackgroundImageFix"/>
<feBlend mode="normal" in="SourceGraphic" in2="BackgroundImageFix" result="shape"/>
<feGaussianBlur stdDeviation="1" result="effect1_foregroundBlur_86_37307"/>
</filter>
<filter id="filter5_f_86_37307" x="17.7144" y="50.0005" width="12.5715" height="7.42871" filterUnits="userSpaceOnUse" color-interpolation-filters="sRGB">
<feFlood flood-opacity="0" result="BackgroundImageFix"/>
<feBlend mode="normal" in="SourceGraphic" in2="BackgroundImageFix" result="shape"/>
<feGaussianBlur stdDeviation="1" result="effect1_foregroundBlur_86_37307"/>
</filter>
<filter id="filter6_f_86_37307" x="19.8572" y="50.8574" width="8.28564" height="5.71436" filterUnits="userSpaceOnUse" color-interpolation-filters="sRGB">
<feFlood flood-opacity="0" result="BackgroundImageFix"/>
<feBlend mode="normal" in="SourceGraphic" in2="BackgroundImageFix" result="shape"/>
<feGaussianBlur stdDeviation="1" result="effect1_foregroundBlur_86_37307"/>
</filter>
<filter id="filter7_d_86_37307" x="9" y="18.0005" width="30" height="30" filterUnits="userSpaceOnUse" color-interpolation-filters="sRGB">
<feFlood flood-opacity="0" result="BackgroundImageFix"/>
<feColorMatrix in="SourceAlpha" type="matrix" values="0 0 0 0 0 0 0 0 0 0 0 0 0 0 0 0 0 0 127 0" result="hardAlpha"/>
<feMorphology radius="1" operator="erode" in="SourceAlpha" result="effect1_dropShadow_86_37307"/>
<feOffset dy="6"/>
<feGaussianBlur stdDeviation="6"/>
<feComposite in2="hardAlpha" operator="out"/>
<feColorMatrix type="matrix" values="0 0 0 0 0.25098 0 0 0 0 0.313726 0 0 0 0 0.380392 0 0 0 0.33 0"/>
<feBlend mode="multiply" in2="BackgroundImageFix" result="effect1_dropShadow_86_37307"/>
<feBlend mode="normal" in="SourceGraphic" in2="effect1_dropShadow_86_37307" result="shape"/>
</filter>
<radialGradient id="paint0_radial_86_37307" cx="0" cy="0" r="1" gradientTransform="matrix(-9.62711 -0.0382672 -0.0686413 14.4675 11.1751 25.0391)" gradientUnits="userSpaceOnUse">
<stop offset="0.215" stop-color="#FF9800"/>
<stop offset="0.68" stop-color="#FA581B"/>
<stop offset="1" stop-color="#DA393E"/>
</radialGradient>
<radialGradient id="paint1_radial_86_37307" cx="0" cy="0" r="1" gradientTransform="matrix(-9.62711 -0.0382672 -0.0686413 14.4675 20.3419 18.5391)" gradientUnits="userSpaceOnUse">
<stop offset="0.215" stop-color="#FF9800"/>
<stop offset="0.68" stop-color="#FA581B"/>
<stop offset="1" stop-color="#DA393E"/>
</radialGradient>
<linearGradient id="paint2_linear_86_37307" x1="24" y1="16.0005" x2="24" y2="52.0005" gradientUnits="userSpaceOnUse">
<stop stop-color="#C1C7CD"/>
<stop offset="1" stop-color="#6A7784"/>
</linearGradient>
</defs>
</svg>
