<svg width="104" height="104" viewBox="0 0 104 104" fill="none" xmlns="http://www.w3.org/2000/svg">
<path d="M31.0293 11.4936C32.9047 9.61826 35.4482 8.5647 38.1004 8.5647H65.6961C68.3483 8.5647 70.8918 9.61827 72.7672 11.4936L92.3027 31.0291C94.178 32.9045 95.2316 35.448 95.2316 38.1002V65.6959C95.2316 68.3481 94.178 70.8916 92.3027 72.767L72.7672 92.3024C70.8918 94.1778 68.3483 95.2314 65.6961 95.2314H38.1004C35.4482 95.2314 32.9047 94.1778 31.0293 92.3024L11.4939 72.767C9.61851 70.8916 8.56494 68.3481 8.56494 65.6959V38.1002C8.56494 35.448 9.61851 32.9045 11.4939 31.0291L31.0293 11.4936Z" stroke="#FF7676" stroke-width="4" stroke-linecap="round" stroke-linejoin="round"/>
<path d="M52 27.3684L52 62.9474" stroke="#FF7676" stroke-width="4" stroke-linecap="round" stroke-linejoin="round"/>
<path d="M52 77.5438L52 80.2807" stroke="#FF7676" stroke-width="4" stroke-linecap="round" stroke-linejoin="round"/>
</svg>
